<svg xmlns="http://www.w3.org/2000/svg" version="1" viewBox="0 0 207 214"><path d="M164 140l12 4c9 3 16 4 26 4h5c0 2-1 3-2 3-7 1-20-1-27-3l-7-3-7-2-5-2c-4-1-8-1-13-4l-2-3-4-1-8-4v13c-1 9-6 21-11 27a35 35 0 0 1-18 13c-6 2-11 3-18 2-12-3-21-9-31-17l-15-16-1-1-6 15-12 27c-2 6-6 17-11 21l-5 1-4-3 1-4h3l1-1 3-1 2-2c4-6 5-10 8-17l14-31 4-8c0-3-4-7-5-9-11-21-29-52-6-71 3-2 7-3 10-3 10-1 17 1 26 6l6 4v-3l3-7c5-11 8-26 13-37 4-7 6-16 11-23l3-4 6 2c2 2 7 9 7 11l2 4c6 14 9 27 12 41l6 37v6l2 9v14l3 3c9 6 21 8 29 13zM101 7c-2-1-4 2-5 3-4 5-5 9-7 15l-6 11-10 28-4 10 1 2 15 13 7 6 25 20 11 7c2 1 1-3 1-5l-1-14-4-24c-3-18-6-36-13-54-2-6-5-13-10-18zm-47 98v-3l8-19c1-1 3-4 2-6l-5-3c-12-7-30-10-38 3-9 14 0 34 7 47l6 11 2 4 2 3 1-3 10-22c1-5 2-8 5-12zm75 22l-4-2-35-26-8-6c-4-4-9-10-14-13h-1l-2 4-16 38-2 4v2l-7 15 2 6 4 5 2 2 2 1 4 5 10 8 4 4c7 4 17 6 25 6 15 1 27-13 33-27 3-8 4-17 3-26z"/></svg>