<svg width="22" height="22" viewBox="0 0 22 22" fill="none" xmlns="http://www.w3.org/2000/svg">
<path d="M11.0683 5.60977C8.08701 5.60977 5.68232 8.01445 5.68232 10.9957C5.68232 13.977 8.08701 16.3816 11.0683 16.3816C14.0495 16.3816 16.4542 13.977 16.4542 10.9957C16.4542 8.01445 14.0495 5.60977 11.0683 5.60977ZM11.0683 14.4973C9.1417 14.4973 7.5667 12.927 7.5667 10.9957C7.5667 9.06445 9.13701 7.49414 11.0683 7.49414C12.9995 7.49414 14.5698 9.06445 14.5698 10.9957C14.5698 12.927 12.9948 14.4973 11.0683 14.4973ZM17.9308 5.38945C17.9308 6.08789 17.3683 6.6457 16.6745 6.6457C15.9761 6.6457 15.4183 6.0832 15.4183 5.38945C15.4183 4.6957 15.9808 4.1332 16.6745 4.1332C17.3683 4.1332 17.9308 4.6957 17.9308 5.38945ZM21.4979 6.66445C21.4183 4.98164 21.0339 3.49102 19.8011 2.26289C18.573 1.03477 17.0823 0.650391 15.3995 0.566016C13.6651 0.467578 8.4667 0.467578 6.73232 0.566016C5.0542 0.645703 3.56357 1.03008 2.33076 2.2582C1.09795 3.48633 0.718262 4.97695 0.633887 6.65977C0.535449 8.39414 0.535449 13.5926 0.633887 15.327C0.713574 17.0098 1.09795 18.5004 2.33076 19.7285C3.56357 20.9566 5.04951 21.341 6.73232 21.4254C8.4667 21.5238 13.6651 21.5238 15.3995 21.4254C17.0823 21.3457 18.573 20.9613 19.8011 19.7285C21.0292 18.5004 21.4136 17.0098 21.4979 15.327C21.5964 13.5926 21.5964 8.39883 21.4979 6.66445ZM19.2573 17.1879C18.8917 18.1066 18.1839 18.8145 17.2605 19.1848C15.8776 19.7332 12.5964 19.6066 11.0683 19.6066C9.54014 19.6066 6.2542 19.7285 4.87607 19.1848C3.95732 18.8191 3.24951 18.1113 2.8792 17.1879C2.33076 15.8051 2.45732 12.5238 2.45732 10.9957C2.45732 9.46758 2.33545 6.18164 2.8792 4.80352C3.24482 3.88477 3.95264 3.17695 4.87607 2.80664C6.25889 2.2582 9.54014 2.38477 11.0683 2.38477C12.5964 2.38477 15.8823 2.26289 17.2605 2.80664C18.1792 3.17227 18.887 3.88008 19.2573 4.80352C19.8058 6.18633 19.6792 9.46758 19.6792 10.9957C19.6792 12.5238 19.8058 15.8098 19.2573 17.1879Z" fill="black"/>
</svg>
