<svg width="19" height="19" viewBox="0 0 19 19" fill="none" xmlns="http://www.w3.org/2000/svg">
<path d="M14.472 1.21359L9.50019 6.18544L4.52834 1.21359C3.91826 0.603506 2.92872 0.603506 2.31863 1.21359L1.21378 2.31845C0.603693 2.92853 0.603693 3.91807 1.21378 4.52816L6.18562 9.5L1.21378 14.4718C0.603693 15.0819 0.603693 16.0715 1.21378 16.6816L2.31863 17.7864C2.92872 18.3965 3.91826 18.3965 4.52834 17.7864L9.50019 12.8146L14.472 17.7864C15.0821 18.3965 16.0717 18.3965 16.6817 17.7864L17.7866 16.6816C18.3967 16.0715 18.3967 15.0819 17.7866 14.4718L12.8148 9.5L17.7866 4.52816C18.3967 3.91807 18.3967 2.92853 17.7866 2.31845L16.6817 1.21359C16.0717 0.603506 15.0821 0.603506 14.472 1.21359Z" fill="white"/>
</svg>
