<?xml version="1.0" encoding="UTF-8"?><svg id="a" xmlns="http://www.w3.org/2000/svg" viewBox="0 0 169.44 175.04"><path d="M134.4,114.68c1.05.6,7.6,2.63,9.58,3.24,7.33,2.27,13.48,3.37,21.04,3.38,1.47,0,2.94.02,4.41.01.13,1-.91,1.82-1.75,1.95-6.05,1-16.43-.67-22.37-2.54-1.84-.58-3.54-1.58-5.47-2.1s-4.2-.58-6.02-1.24c-1.1-.4-2.3-1.42-3.36-1.8-3.88-1.38-6.92-1.38-10.7-3.9-.79-.53-1.87-1.8-2.33-2.04-.74-.38-1.91-.27-2.71-.52-.89-.28-5.96-3.74-6.35-3.29.6,1.32-.2,2.39-.24,3.22-.09,2.31.2,4.89-.03,7.33-.66,6.91-4.98,16.92-9.32,21.97-3.83,4.45-6.74,7.77-12.26,9.85-.5.19-1.75.58-2.25.73-4.85,1.45-9.32,2.22-14.37,1.3-10.48-1.91-17.4-7.17-25.6-13.73-4.63-3.7-8.19-9.01-12.19-13.37-.3-.33-.57-.78-1.07-.7l-4.88,12.44c-3.14,7.38-6.75,14.53-9.84,21.98-1.98,4.78-4.7,14.44-9.04,17.19-1.23.78-2.19,1.27-3.64.79-.56-.19-3.36-1.77-3.49-2.23-.31-1.1-.14-2.58.91-3.15.74-.39,1.31-.22,1.98-.44.35-.12.61-.52.99-.64.79-.24,2.24-.11,2.86-.64.38-.34.64-1.33.93-1.75,3.59-5.12,4.16-8.16,6.62-13.63,3.96-8.8,7.93-16.6,11.65-25.7.66-1.61,2.87-5.28,3.05-6.64.28-2.07-2.63-5.5-3.67-7.35-9.46-16.89-23.93-42.6-4.76-57.96,2.23-1.78,5.38-2.24,8.09-2.52,7.69-.81,14.04.94,20.8,4.91.88.52,4.57,3.64,5.14,3.14.08-.07.23-1.64.35-2.02.64-2.03,1.26-4.04,2.01-5.75,4.04-9.22,6.68-21.25,11.02-30.03,2.91-5.87,5.08-13.51,8.81-19.13.28-.42,2.59-3.16,2.81-3.23,1.38-.43,3.44,1.04,4.47,1.92,1.28,1.09,5.73,7.21,6.15,8.71.55,1.97.55,1.74,1.29,3.42,4.89,11.1,7.15,21.46,9.37,33.45,1.8,9.71,3.92,20.4,4.95,30.23.13,1.23.19,4.55.29,5.03.43,2.13,1.54,5,1.79,7.4.37,3.56-.05,7.83.33,11.47.74.55,1.42,1.48,2.12,1.98,7,5.01,16.73,6.92,23.88,10.98ZM82.7,5.72c-1.32-.81-3.55,1.42-4.32,2.48-2.74,3.78-3.81,7.68-5.78,11.91-1.23,2.64-4.19,7.27-4.92,9.73-2.22,7.53-5.18,15.01-7.77,22.47-.89,2.55-2.47,5.84-3.11,8.27-.18.68-.29,1.25.17,1.84,4.28,3.39,8.13,7.28,12.32,10.78,2.12,1.76,3.89,2.77,5.98,4.37,7.03,5.38,13.57,11.22,20.73,16.4,2.1,1.52,6.32,4.79,8.43,5.74,2.14.96,1.01-2.69.98-3.85-.13-4.34-.24-7.31-.82-11.52-.92-6.68-2.25-13.37-3.41-20.05-2.55-14.72-4.64-29.46-10.04-43.44-2.1-5.43-4.31-11.09-8.46-15.13ZM44,85.77c.35-.55.23-1.54.49-2.16,2.12-5.16,4.12-10.41,6.39-15.49.58-1.3,2.4-3.27,1.61-4.77-.13-.25-3.9-2.89-4.42-3.21-9.62-5.73-24.02-8.06-30.86,3.11-7.01,11.44-.34,27.83,5.37,38.44,1.6,2.97,3.45,5.82,4.91,8.87.86,1.79.7,1.59,1.79,3.18.29.42,1.1,2.72,1.75,2.23.08-.06.31-1.48.48-1.88,2.7-6.31,6-12.5,8.4-18.72,1.37-3.54,2.02-6.38,4.1-9.59ZM105.92,104.19c-1.25-.32-2.26-1.51-3.34-2.24-9.88-6.72-19.17-13.94-28.65-21.27-2.15-1.66-4.5-3.09-6.62-4.84-3.53-2.92-7.88-8.13-11.83-10.03-.25-.12-.8-.35-.99-.21-.12.09-.77,2.46-1.03,3-4.68,9.81-8.94,20.79-13.07,30.96-.43,1.06-1.92,3-2,3.26-.13.38.08,1.04-.16,1.77-1.35,4.19-4.12,8.23-5.17,12.57-.52,2.14.23,2.95,1.42,4.59.95,1.31,2.46,2.66,3.47,3.95.33.41.86,1.82,1.18,2.12.34.32,1.09.41,1.62.82.9.71,2.27,2.57,3.33,3.53,2.73,2.46,5.75,4.35,8.4,6.62.98.84,2.29,2.78,3.24,3.33,5.37,3.11,14.09,4.86,20.24,5.1,12.42.49,22.4-10.75,26.93-21.95,2.75-6.81,3.16-13.7,3.03-21.06Z" style="fill:#1a2663;"/></svg>