<svg width="22" height="24" viewBox="0 0 22 24" fill="none" xmlns="http://www.w3.org/2000/svg">
<path d="M21.063 9.84004C18.9986 9.84446 16.985 9.20004 15.3067 7.99785V16.3791C15.3063 17.9313 14.8319 19.4464 13.947 20.7218C13.0621 21.9971 11.8089 22.9718 10.355 23.5156C8.90111 24.0594 7.31586 24.1463 5.81124 23.7647C4.30662 23.3832 2.95438 22.5513 1.93536 21.3804C0.916339 20.2094 0.279126 18.7553 0.108942 17.2124C-0.061242 15.6695 0.243717 14.1114 0.983032 12.7465C1.72235 11.3817 2.86077 10.2751 4.24605 9.57472C5.63133 8.87438 7.19742 8.6137 8.73487 8.82754V13.0416C8.03187 12.8203 7.27692 12.8268 6.57782 13.0601C5.87872 13.2934 5.27121 13.7417 4.84203 14.3408C4.41286 14.94 4.18397 15.6594 4.18805 16.3964C4.19212 17.1334 4.42895 17.8503 4.86472 18.4447C5.30049 19.0391 5.91292 19.4806 6.61456 19.7062C7.31619 19.9317 8.07117 19.9299 8.77168 19.7008C9.47219 19.4718 10.0824 19.0272 10.5152 18.4307C10.9481 17.8341 11.1813 17.1161 11.1817 16.3791V0.000976562H15.3067C15.3044 0.34985 15.3342 0.698197 15.3958 1.0416C15.5393 1.80707 15.8373 2.53525 16.2717 3.18163C16.7061 3.82801 17.2678 4.37902 17.9224 4.80098C18.8541 5.41637 19.9464 5.74404 21.063 5.74316V9.84004Z" fill="black"/>
</svg>
