<?xml version="1.0" encoding="UTF-8"?>
<svg id="Layer_1" xmlns="http://www.w3.org/2000/svg" version="1.1" viewBox="0 0 207.1 213.94">
  <!-- Generator: Adobe Illustrator 29.4.0, SVG Export Plug-In . SVG Version: 2.1.0 Build 152)  -->
  <path d="M164.27,140.17c1.28.73,9.29,3.22,11.71,3.97,8.96,2.77,16.47,4.12,25.72,4.13,1.8,0,3.6.03,5.39.02.16,1.22-1.11,2.22-2.13,2.39-7.4,1.23-20.08-.82-27.34-3.1-2.25-.71-4.33-1.93-6.69-2.57s-5.14-.71-7.36-1.52c-1.35-.49-2.81-1.73-4.11-2.2-4.74-1.68-8.46-1.68-13.08-4.77-.97-.65-2.28-2.2-2.85-2.49-.91-.47-2.34-.33-3.31-.64-1.09-.35-7.28-4.57-7.76-4.02.74,1.62-.25,2.92-.29,3.94-.1,2.82.24,5.98-.04,8.96-.81,8.45-6.09,20.68-11.39,26.85-4.68,5.44-8.23,9.5-14.99,12.04-.62.23-2.14.71-2.75.89-5.93,1.77-11.39,2.71-17.56,1.59-12.8-2.33-21.26-8.76-31.29-16.78-5.66-4.53-10-11.01-14.9-16.34-.37-.4-.7-.95-1.31-.85l-5.96,15.21c-3.84,9.02-8.25,17.76-12.03,26.87-2.43,5.85-5.75,17.65-11.05,21.01-1.51.96-2.67,1.55-4.44.96-.69-.23-4.1-2.16-4.26-2.72-.38-1.35-.17-3.16,1.12-3.85.9-.48,1.61-.27,2.42-.54.43-.15.75-.64,1.21-.78.96-.3,2.74-.13,3.49-.79.47-.41.78-1.63,1.14-2.14,4.39-6.26,5.09-9.98,8.09-16.66,4.84-10.75,9.69-20.29,14.24-31.41.8-1.97,3.5-6.45,3.73-8.11.34-2.53-3.22-6.72-4.48-8.98-11.57-20.65-29.25-52.06-5.82-70.84,2.72-2.18,6.58-2.74,9.89-3.09,9.39-.99,17.15,1.15,25.43,6,1.08.63,5.58,4.45,6.28,3.83.09-.08.28-2.01.43-2.47.78-2.48,1.54-4.94,2.45-7.03,4.94-11.27,8.16-25.98,13.47-36.7,3.55-7.17,6.2-16.51,10.76-23.38.34-.51,3.17-3.86,3.44-3.95,1.68-.53,4.2,1.28,5.46,2.35,1.56,1.33,7.01,8.81,7.52,10.64.67,2.41.67,2.12,1.58,4.18,5.98,13.57,8.74,26.23,11.46,40.88,2.2,11.87,4.79,24.94,6.05,36.95.16,1.5.23,5.56.35,6.15.53,2.6,1.89,6.11,2.19,9.05.46,4.35-.06,9.57.4,14.02.9.68,1.73,1.81,2.59,2.42,8.56,6.12,20.44,8.46,29.18,13.42ZM101.08,7c-1.62-.98-4.34,1.74-5.28,3.03-3.35,4.62-4.65,9.39-7.07,14.55-1.51,3.22-5.12,8.89-6.01,11.89-2.71,9.21-6.33,18.35-9.5,27.47-1.08,3.12-3.02,7.14-3.8,10.11-.22.83-.35,1.52.21,2.25,5.23,4.15,9.93,8.9,15.06,13.18,2.59,2.16,4.76,3.39,7.31,5.34,8.59,6.58,16.58,13.72,25.34,20.04,2.57,1.86,7.72,5.86,10.3,7.02,2.62,1.17,1.24-3.29,1.2-4.71-.16-5.31-.29-8.94-1-14.08-1.12-8.16-2.75-16.34-4.16-24.5-3.12-17.99-5.67-36.01-12.27-53.1-2.56-6.63-5.27-13.55-10.34-18.49ZM53.78,104.83c.43-.67.29-1.89.6-2.64,2.59-6.31,5.03-12.72,7.81-18.93.71-1.59,2.93-3.99,1.97-5.83-.16-.3-4.76-3.54-5.41-3.92-11.76-7-29.36-9.85-37.72,3.8-8.57,13.99-.41,34.02,6.57,46.98,1.95,3.63,4.22,7.12,6,10.84,1.05,2.19.86,1.95,2.19,3.88.35.51,1.34,3.32,2.14,2.73.09-.07.38-1.8.59-2.3,3.3-7.71,7.33-15.28,10.27-22.88,1.67-4.32,2.47-7.79,5.01-11.73ZM129.46,127.35c-1.53-.39-2.76-1.84-4.08-2.74-12.08-8.21-23.43-17.03-35.01-26-2.63-2.03-5.5-3.77-8.09-5.91-4.32-3.57-9.64-9.94-14.46-12.26-.3-.14-.97-.42-1.2-.25-.15.11-.95,3.01-1.26,3.66-5.72,11.99-10.93,25.41-15.97,37.84-.52,1.29-2.34,3.66-2.45,3.98-.16.47.09,1.27-.19,2.16-1.65,5.13-5.03,10.06-6.32,15.36-.64,2.62.28,3.61,1.73,5.61,1.16,1.61,3,3.25,4.24,4.83.4.51,1.05,2.23,1.44,2.59.41.39,1.33.5,1.99,1.01,1.11.86,2.77,3.14,4.07,4.31,3.34,3.01,7.02,5.31,10.26,8.09,1.2,1.03,2.8,3.4,3.96,4.07,6.56,3.8,17.23,5.94,24.73,6.23,15.18.6,27.38-13.14,32.91-26.83,3.36-8.32,3.86-16.75,3.7-25.74Z"/>
</svg>