<?xml version="1.0" encoding="UTF-8"?>
<svg id="Layer_1" xmlns="http://www.w3.org/2000/svg" version="1.1" viewBox="0 0 400 300">
  <!-- Generator: Adobe Illustrator 29.5.1, SVG Export Plug-In . SVG Version: 2.1.0 Build 141)  -->
  <g id="New_version">
    <g>
      <path d="M61.72,168.45c-1.56.7-3.29,1.28-5.18,1.73-1.89.45-3.6.68-5.15.68-4.21,0-7.9-.82-11.08-2.46-3.18-1.64-5.64-3.9-7.36-6.8-1.73-2.9-2.59-6.19-2.59-9.9,0-4.64.92-8.57,2.75-11.79,1.83-3.22,4.3-5.63,7.39-7.23s6.51-2.4,10.25-2.4c2.41,0,4.67.27,6.8.81s3.99,1.24,5.61,2.1l-2.54,7.28c-1.04-.58-2.47-1.1-4.29-1.59-1.82-.49-3.34-.73-4.56-.73-4.32,0-7.61,1.08-9.9,3.24-2.28,2.16-3.43,5.36-3.43,9.6,0,2.45.56,4.58,1.67,6.39s2.67,3.21,4.67,4.18c2,.97,4.27,1.46,6.82,1.46s4.26-.34,5.45-1.03v-4.8h-6.85v-7.55h14.78v16.78c-.61.65-1.7,1.32-3.26,2.02Z"/>
      <path d="M132.72,170.42h-7.82v-16.13h-17.75v16.13h-7.82v-39.7h7.82v16.02h17.75v-16.02h7.82v39.7Z"/>
      <path d="M191.17,162.65h-13.16l-3.24,7.77h-7.71l17.91-41.27h.43l17.91,41.27h-9.06l-3.07-7.77ZM188.58,156.07l-3.83-9.66-3.99,9.66h7.82Z"/>
      <path d="M237.65,130.72h11.87c5.07,0,9.24.98,12.52,2.94,3.27,1.96,5.65,4.5,7.15,7.61,1.49,3.11,2.24,6.45,2.24,10.01,0,3.81-.9,7.17-2.7,10.09-1.8,2.91-4.21,5.15-7.25,6.72-3.04,1.56-6.38,2.35-10.01,2.35h-13.81v-39.7ZM250.11,162.86c4.07,0,7.28-1.04,9.65-3.13,2.37-2.09,3.56-5.09,3.56-9.01,0-3.17-.65-5.68-1.97-7.55s-2.84-3.16-4.59-3.88c-1.74-.72-3.39-1.08-4.93-1.08h-6.37v24.65h4.64Z"/>
      <path d="M313.59,130.69v39.7h-7.82v-39.7h7.82Z"/>
      <path d="M368.79,170.42l-8.36-12.62h-5.23v12.62h-7.82v-39.7h12.03c4.93,0,8.74,1.2,11.46,3.59,2.71,2.39,4.07,5.66,4.07,9.79,0,2.45-.51,4.74-1.54,6.88-1.02,2.14-2.6,3.82-4.72,5.04l9.22,14.4h-9.11ZM355.19,150.24h5.56c2.12,0,3.67-.62,4.64-1.86.97-1.24,1.45-2.58,1.45-4.02s-.41-2.81-1.24-4.13c-.83-1.31-2.43-1.97-4.8-1.97h-5.61v11.98Z"/>
    </g>
  </g>
</svg>